<mxfile host="app.diagrams.net" modified="2022-02-28T12:14:47.908Z" agent="5.0 (Windows)" etag="dsq22K9dFYdqJmPs9SBk" version="16.6.4" type="github">
  <diagram id="0JB9L6YQ1Vb3ux6XOnUB" name="Page-1">
    <mxGraphModel dx="1888" dy="536" grid="1" gridSize="10" guides="1" tooltips="1" connect="1" arrows="1" fold="1" page="1" pageScale="1" pageWidth="850" pageHeight="1100" math="0" shadow="0">
      <root>
        <mxCell id="0" />
        <mxCell id="1" parent="0" />
        <mxCell id="DN2VVhgE4Ubr-LRDRsSb-1" value="CurrencyConverter" style="rounded=0;whiteSpace=wrap;html=1;" vertex="1" parent="1">
          <mxGeometry x="-40" y="280" width="450" height="20" as="geometry" />
        </mxCell>
        <mxCell id="DN2VVhgE4Ubr-LRDRsSb-2" value="&lt;div&gt;+convert(currencyAmount: float, originalCurrency: String, newCurrency: String): float&lt;br&gt;&lt;/div&gt;&lt;div&gt;+listAvailableCurrencies(): String[]&lt;br&gt;&lt;/div&gt;" style="rounded=0;whiteSpace=wrap;html=1;" vertex="1" parent="1">
          <mxGeometry x="-40" y="300" width="450" height="60" as="geometry" />
        </mxCell>
        <mxCell id="DN2VVhgE4Ubr-LRDRsSb-4" value="ConverterGUI" style="rounded=0;whiteSpace=wrap;html=1;" vertex="1" parent="1">
          <mxGeometry x="-40" y="20" width="450" height="20" as="geometry" />
        </mxCell>
        <mxCell id="DN2VVhgE4Ubr-LRDRsSb-6" value="# frame: JFrame&lt;br&gt;# originalAmountField: JTextField&lt;br&gt;# convertedAmountField: JTextField&lt;br&gt;# originalCurrencyBox: JComboBox&amp;lt;String&amp;gt;&lt;br&gt;# newCurrencyBox: JComboBox&amp;lt;String&amp;gt;&lt;br&gt;# swapButton: JButton&lt;br&gt;# convertButton: JButton&lt;br&gt;# converter: CurrencyConverter" style="rounded=0;whiteSpace=wrap;html=1;" vertex="1" parent="1">
          <mxGeometry x="-40" y="40" width="450" height="130" as="geometry" />
        </mxCell>
        <mxCell id="DN2VVhgE4Ubr-LRDRsSb-11" value="" style="edgeStyle=orthogonalEdgeStyle;rounded=0;orthogonalLoop=1;jettySize=auto;html=1;" edge="1" parent="1" source="DN2VVhgE4Ubr-LRDRsSb-8" target="DN2VVhgE4Ubr-LRDRsSb-1">
          <mxGeometry relative="1" as="geometry" />
        </mxCell>
        <mxCell id="DN2VVhgE4Ubr-LRDRsSb-8" value="&lt;div&gt;- swap(): void&lt;/div&gt;&lt;div&gt;-convert(): void&lt;br&gt;&lt;/div&gt;" style="rounded=0;whiteSpace=wrap;html=1;" vertex="1" parent="1">
          <mxGeometry x="-40" y="170" width="450" height="40" as="geometry" />
        </mxCell>
      </root>
    </mxGraphModel>
  </diagram>
</mxfile>
